# xmcd
#
# Track frame offsets: 
#        150
#        14097
#        27532
#        43220
#        55762
#        68850
#        81132
#        94650
#        108225
#        120907
#        136282
#        149172
#
# Disc length: 2158 seconds
#
# Revision: 0
# Processed by: cddbd v1.5.2PL0 Copyright (c) Steve Scherf et al.
# Submitted via: ExactAudioCopy v0.95a5
#
DISCID=aa086c0c
DTITLE=高胜美 - 风光十年第8辑
DYEAR=1995
DGENRE=Folk
TTITLE0=寒星
TTITLE1=樱花恋
TTITLE2=水长流
TTITLE3=寻梦园
TTITLE4=心恋
TTITLE5=祝你幸福
TTITLE6=昨夜梦醒时
TTITLE7=女儿圈
TTITLE8=我爱秋莲
TTITLE9=采槟榔
TTITLE10=云河
TTITLE11=诗意
EXTD=
EXTT0=
EXTT1=
EXTT2=
EXTT3=
EXTT4=
EXTT5=
EXTT6=
EXTT7=
EXTT8=
EXTT9=
EXTT10=
EXTT11=
PLAYORDER=
